<?xml version="1.0" standalone="no"?>
<!DOCTYPE svg PUBLIC "-//W3C//DTD SVG 20010904//EN"
 "http://www.w3.org/TR/2001/REC-SVG-20010904/DTD/svg10.dtd">
<svg version="1.0" xmlns="http://www.w3.org/2000/svg"
 width="700.000000pt" height="700.000000pt" viewBox="0 0 700.000000 700.000000"
 preserveAspectRatio="xMidYMid meet">
<metadata>
Created by potrace 1.14, written by Peter Selinger 2001-2017
</metadata>
<g transform="translate(0.000000,700.000000) scale(0.100000,-0.100000)"
fill="#000000" stroke="none">
<path d="M1687 6414 c-1 -1 -28 -4 -60 -8 -32 -3 -62 -8 -66 -10 -4 -3 -21 -7
-37 -10 -48 -9 -154 -54 -223 -95 -179 -106 -329 -297 -387 -490 -18 -61 -18
-64 -30 -141 -10 -67 -13 -3659 -3 -3715 4 -22 10 -56 13 -75 16 -104 76 -240
150 -345 150 -210 421 -353 675 -356 47 -1 61 -4 57 -14 -3 -8 -64 -102 -136
-211 -165 -246 -176 -268 -179 -348 -3 -89 26 -161 88 -219 67 -63 110 -80
201 -80 87 -1 151 24 203 80 18 18 145 203 284 411 l252 377 1011 1 1011 0
255 -383 c141 -210 273 -398 295 -417 57 -53 103 -69 189 -69 80 -1 138 19
190 66 93 82 126 214 82 327 -6 14 -74 122 -152 239 -78 118 -144 219 -146
226 -4 9 14 13 58 14 219 6 448 108 599 267 127 135 207 299 235 484 10 64 11
3652 2 3730 -44 355 -306 650 -660 741 l-83 22 -1843 2 c-1013 1 -1843 1
-1845 -1z m1516 -583 c4 -1 7 -394 7 -874 l0 -873 -869 1 c-478 0 -872 3 -876
6 -3 4 -6 340 -6 748 -1 847 -4 814 80 900 51 51 100 78 162 89 30 5 1456 8
1502 3z m2132 -11 c101 -33 175 -112 199 -212 5 -22 9 -839 6 -1408 l0 -116
-875 0 -875 0 0 871 c0 480 2 874 4 876 2 2 341 4 753 3 586 -1 757 -4 788
-14z m205 -2432 c1 -62 1 -402 1 -755 -1 -622 -1 -643 -21 -697 -25 -65 -86
-130 -150 -160 l-45 -21 -1811 -2 c-1982 -3 -1849 -7 -1936 54 -41 28 -93 102
-109 155 -8 25 -15 1151 -9 1511 l0 27 2040 0 2040 0 0 -112z"/>
<path d="M2259 2905 c-133 -34 -222 -158 -214 -297 7 -109 63 -193 161 -243
49 -25 70 -29 129 -29 171 2 298 133 290 301 -9 188 -183 316 -366 268z"/>
<path d="M4585 2903 c-241 -73 -283 -391 -69 -525 197 -123 452 29 443 264 -3
68 -26 121 -77 179 -71 80 -193 113 -297 82z"/>
</g>
</svg>
